<?xml version="1.0" standalone="no"?>
<!DOCTYPE svg PUBLIC "-//W3C//DTD SVG 20010904//EN"
 "http://www.w3.org/TR/2001/REC-SVG-20010904/DTD/svg10.dtd">
<svg version="1.0" xmlns="http://www.w3.org/2000/svg"
 width="512.000000pt" height="512.000000pt" viewBox="0 0 512.000000 512.000000"
 preserveAspectRatio="xMidYMid meet">
<metadata>
Created by potrace 1.11, written by Peter Selinger 2001-2013
</metadata>
<g transform="translate(0.000000,512.000000) scale(0.100000,-0.100000)"
fill="#000000" stroke="none">
<path d="M2468 5115 c-2 -2 -33 -6 -70 -9 -70 -7 -112 -14 -138 -21 -8 -2 -31
-7 -50 -10 -128 -21 -355 -99 -508 -174 -34 -17 -67 -31 -72 -31 -6 0 -10 -5
-10 -11 0 -5 -4 -8 -9 -5 -5 3 -14 -1 -21 -9 -7 -8 -18 -15 -26 -15 -7 0 -19
-6 -26 -13 -7 -7 -34 -23 -60 -37 -27 -14 -48 -28 -48 -32 0 -5 -5 -8 -10 -8
-16 0 -261 -174 -325 -232 -11 -9 -42 -37 -69 -60 -44 -38 -136 -131 -222
-222 -16 -18 -52 -62 -80 -97 -27 -35 -51 -66 -54 -69 -26 -25 -129 -198 -173
-290 -80 -168 -129 -329 -144 -478 -12 -118 -5 -314 12 -354 4 -10 5 -25 1
-33 -3 -8 0 -15 6 -15 6 0 9 -3 5 -6 -3 -3 1 -27 9 -52 13 -44 13 -48 -5 -60
-11 -8 -30 -22 -42 -33 -13 -11 -33 -22 -45 -25 -12 -3 -25 -12 -28 -20 -3 -8
-10 -14 -15 -14 -11 0 -69 -40 -183 -125 l-67 -50 -1 -93 0 -92 45 -63 c24
-34 48 -67 53 -72 5 -6 21 -32 37 -59 29 -49 38 -83 25 -91 -8 -5 -4 -125 5
-174 13 -69 84 -225 114 -249 12 -10 12 -12 1 -6 -11 5 -10 2 3 -12 10 -10 27
-30 38 -44 25 -30 82 -90 103 -107 26 -22 126 -84 126 -78 0 3 10 -1 23 -9 39
-26 135 -54 203 -60 17 -2 35 -5 40 -8 21 -11 192 -1 282 17 54 10 176 52 235
81 37 18 67 30 67 26 0 -4 5 1 11 11 5 9 17 17 24 17 8 0 15 5 15 10 0 6 5 10
10 10 6 0 33 18 61 40 57 45 52 44 99 29 39 -11 78 -19 125 -24 16 -2 30 -4
30 -5 0 -1 16 -3 35 -5 19 -3 47 -6 63 -8 15 -2 30 -7 34 -10 3 -4 21 -7 39
-7 18 0 36 -4 39 -10 3 -5 13 -10 21 -10 25 0 86 -53 100 -87 17 -39 18 -75 4
-125 -15 -52 -50 -91 -118 -128 -61 -35 -334 -210 -342 -220 -3 -3 -23 -17
-45 -30 -22 -13 -42 -26 -45 -29 -9 -11 -69 -51 -75 -51 -3 0 -18 -11 -33 -25
-15 -14 -31 -25 -35 -25 -5 0 -26 -13 -47 -30 -21 -16 -42 -30 -48 -30 -6 0
-12 -4 -14 -8 -1 -5 -78 -58 -170 -119 -161 -108 -166 -112 -147 -129 10 -9
19 -13 19 -8 0 5 4 4 8 -2 8 -12 68 -45 78 -43 4 0 10 -4 13 -9 8 -12 143 -78
154 -74 4 1 7 -3 7 -9 0 -5 5 -7 10 -4 5 3 10 1 10 -4 0 -6 8 -11 18 -11 10 0
22 -4 28 -9 7 -7 97 -44 114 -47 3 0 19 -6 35 -13 17 -7 35 -14 40 -15 6 -2
18 -6 28 -9 18 -7 35 -13 52 -17 6 -1 21 -7 35 -12 31 -12 203 -57 244 -64 17
-2 38 -7 46 -9 17 -5 73 -15 113 -20 15 -2 62 -9 105 -15 42 -5 114 -12 159
-15 76 -4 88 -2 140 23 32 15 83 44 113 63 30 19 72 43 93 54 20 11 37 23 37
28 0 4 4 6 9 3 5 -3 19 2 32 12 13 10 50 29 82 42 31 13 57 28 57 34 0 5 3 7
6 4 3 -3 32 4 64 17 53 21 76 26 158 39 12 2 22 0 22 -5 0 -4 9 -6 19 -4 26 5
68 -38 66 -67 -3 -52 -49 -107 -145 -177 -51 -37 -51 -36 65 -10 50 11 104 23
120 26 17 3 38 9 48 14 9 5 17 7 17 5 0 -3 12 -1 28 5 15 6 34 12 42 14 8 2
56 18 105 35 50 18 100 34 113 37 12 3 22 10 22 16 0 6 3 7 7 4 3 -4 11 -3 17
2 6 5 29 14 51 21 22 7 42 16 45 19 5 7 52 29 60 28 3 0 16 6 30 13 14 8 28
13 33 12 4 -1 7 1 7 6 0 4 14 13 31 21 18 8 60 31 95 52 35 22 66 39 68 39 5
0 113 72 199 133 55 38 182 140 185 149 2 4 10 8 18 8 9 0 13 4 9 9 -3 5 3 12
12 15 18 6 301 286 289 286 -3 0 7 13 22 28 44 47 94 110 92 117 -1 4 5 12 13
18 22 18 90 115 157 223 l60 98 0 99 c0 99 0 100 -46 186 -25 47 -51 92 -57
100 -16 19 -36 53 -43 74 -3 9 -10 17 -15 17 -5 0 -9 6 -9 14 0 8 -3 16 -7 18
-5 2 -26 29 -47 60 -21 32 -47 66 -58 78 -10 11 -16 20 -13 20 5 0 -30 42 -62
76 -7 7 -13 14 -13 17 0 8 -117 133 -242 259 -71 70 -128 125 -128 123 0 -3
-19 15 -43 38 -23 23 -71 67 -106 97 -34 30 -78 69 -96 85 l-33 30 14 65 c18
78 34 112 54 116 30 6 55 13 58 14 1 2 7 4 12 5 6 1 11 3 13 5 1 1 9 3 17 5 9
1 38 13 65 26 28 13 53 22 58 21 4 -1 7 2 7 8 0 5 5 10 12 10 10 0 105 56 118
70 3 3 21 17 41 32 67 49 173 164 184 198 4 11 11 20 16 20 5 0 9 7 9 15 0 8
5 15 10 15 6 0 9 3 8 8 -1 4 6 25 16 47 26 59 35 83 40 108 3 12 8 33 11 47
11 42 12 162 2 210 -5 25 -9 53 -9 63 1 9 -3 17 -6 17 -4 0 -8 8 -9 18 -1 9
-7 31 -14 47 -7 17 -13 35 -15 40 -5 20 -74 140 -74 130 0 -5 -8 5 -16 22 -45
91 -196 202 -336 247 -10 3 -18 15 -18 26 0 11 -4 20 -10 20 -5 0 -10 5 -10
10 0 6 -7 27 -17 48 -9 20 -17 39 -18 42 -1 3 -7 18 -13 33 -7 16 -12 33 -12
38 0 5 -4 9 -10 9 -5 0 -10 6 -10 13 0 6 -7 21 -15 31 -22 29 -79 27 -157 -5
-36 -15 -69 -25 -72 -21 -3 3 -6 0 -6 -7 0 -7 -4 -10 -8 -7 -5 3 -23 -4 -41
-15 -18 -11 -36 -18 -38 -15 -3 3 -18 -3 -33 -14 -16 -11 -32 -20 -38 -20 -5
0 -30 -11 -55 -25 l-45 -25 -62 60 c-34 33 -66 60 -71 60 -5 0 -9 4 -9 9 0 11
-174 131 -189 131 -6 0 -11 5 -11 10 0 6 -9 10 -19 10 -11 0 -21 4 -23 8 -4
10 -114 62 -131 62 -7 0 -17 4 -23 9 -10 10 -156 57 -199 65 -14 3 -34 7 -45
11 -47 15 -247 33 -372 33 -75 0 -138 -1 -140 -3z"/>
</g>
</svg>
